<svg width="19" height="20" viewBox="0 0 19 20" fill="none" xmlns="http://www.w3.org/2000/svg">
<path d="M16.1111 1.5C17.1543 1.5 18 2.3341 18 3.36301L18 6.54327C18 7.57219 17.1543 8.40629 16.1111 8.40629H13.2778C12.2346 8.40629 11.3889 7.57219 11.3889 6.54327L11.3889 3.36301C11.3889 2.3341 12.2346 1.5 13.2778 1.5L16.1111 1.5Z" stroke="#9197B3" stroke-width="1.77083" stroke-linecap="round" stroke-linejoin="round"/>
<path d="M2.88889 1.5C1.84568 1.5 0.999999 2.3341 0.999999 3.36301L1.00001 6.54327C1.00001 7.57219 1.84569 8.40629 2.8889 8.40629H5.72223C6.76543 8.40629 7.61112 7.57219 7.61112 6.54327L7.61111 3.36301C7.61111 2.3341 6.76542 1.5 5.72222 1.5L2.88889 1.5Z" stroke="#9197B3" stroke-width="1.77083" stroke-linecap="round" stroke-linejoin="round"/>
<path d="M16.1111 11.5938C17.1543 11.5938 18 12.4279 18 13.4568V16.637C18 17.6659 17.1543 18.5 16.1111 18.5H13.2778C12.2346 18.5 11.3889 17.6659 11.3889 16.637L11.3889 13.4568C11.3889 12.4279 12.2346 11.5938 13.2778 11.5938H16.1111Z" stroke="#9197B3" stroke-width="1.77083" stroke-linecap="round" stroke-linejoin="round"/>
<path d="M2.8889 11.5938C1.84569 11.5938 1.00001 12.4279 1.00001 13.4568L1.00001 16.637C1.00001 17.6659 1.84569 18.5 2.8889 18.5H5.72223C6.76544 18.5 7.61112 17.6659 7.61112 16.637L7.61112 13.4568C7.61112 12.4279 6.76543 11.5938 5.72223 11.5938H2.8889Z" stroke="#9197B3" stroke-width="1.77083" stroke-linecap="round" stroke-linejoin="round"/>
</svg>
