<svg width="19" height="20" viewBox="0 0 19 20" fill="none" xmlns="http://www.w3.org/2000/svg">
<path d="M3.65625 16.375C4.06458 15.9177 5.97697 13.8132 6.5374 13.8132H12.463C13.2751 13.8132 14.9329 15.5577 15.3438 16.1726M18 10C18 14.6944 14.1944 18.5 9.5 18.5C4.80558 18.5 1 14.6944 1 10C1 5.30558 4.80558 1.5 9.5 1.5C14.1944 1.5 18 5.30558 18 10ZM12.5448 7.10288C12.5448 5.48123 11.1758 4.15625 9.50026 4.15625C7.82471 4.15625 6.45571 5.48123 6.45571 7.10288C6.45571 8.72453 7.82471 10.0495 9.50026 10.0495C11.1758 10.0495 12.5448 8.72453 12.5448 7.10288Z" stroke="#9197B3" stroke-width="1.5"/>
</svg>
