<svg width="22" height="21" viewBox="0 0 22 21" fill="none" xmlns="http://www.w3.org/2000/svg">
<path fill-rule="evenodd" clip-rule="evenodd" d="M0.399994 2.29955C0.399994 1.84883 0.590119 1.41657 0.928544 1.09786C1.26697 0.779149 1.72597 0.6001 2.20458 0.6001H20.1934C20.4306 0.599735 20.6656 0.64343 20.8848 0.728684C21.104 0.813938 21.3032 0.939075 21.471 1.09693C21.6388 1.25479 21.7719 1.44227 21.8627 1.64863C21.9535 1.85499 22.0001 2.07619 22 2.29955V19.2405C22.0003 19.4639 21.9537 19.6851 21.8631 19.8916C21.7725 20.0981 21.6395 20.2857 21.4718 20.4437C21.3041 20.6017 21.105 20.727 20.8858 20.8125C20.6666 20.898 20.4317 20.9419 20.1944 20.9418H2.20458C1.96751 20.9418 1.73277 20.8978 1.51377 20.8123C1.29476 20.7269 1.09578 20.6016 0.928197 20.4437C0.760613 20.2858 0.627709 20.0983 0.537078 19.892C0.446447 19.6857 0.399865 19.4647 0.399994 19.2414V2.29955ZM8.94967 8.35583H11.8745V9.73906C12.2967 8.94389 13.3767 8.22823 14.9996 8.22823C18.111 8.22823 18.8484 9.81211 18.8484 12.7182V18.1013H15.6997V13.3802C15.6997 11.7251 15.2775 10.7913 14.2053 10.7913C12.7179 10.7913 12.0993 11.7982 12.0993 13.3802V18.1013H8.94967V8.35583ZM3.54967 17.9747H6.69934V8.22823H3.54967V17.9737V17.9747ZM7.14999 5.04938C7.15593 5.30335 7.10794 5.55588 7.00885 5.79214C6.90975 6.02841 6.76154 6.24365 6.57291 6.42525C6.38429 6.60684 6.15904 6.75112 5.9104 6.84962C5.66177 6.94813 5.39474 6.99887 5.12499 6.99887C4.85525 6.99887 4.58822 6.94813 4.33958 6.84962C4.09094 6.75112 3.8657 6.60684 3.67708 6.42525C3.48845 6.24365 3.34024 6.02841 3.24114 5.79214C3.14204 5.55588 3.09406 5.30335 3.09999 5.04938C3.11165 4.55087 3.33012 4.07648 3.70861 3.72781C4.0871 3.37913 4.59552 3.18388 5.12499 3.18388C5.65447 3.18388 6.16289 3.37913 6.54138 3.72781C6.91987 4.07648 7.13834 4.55087 7.14999 5.04938Z" fill="#010851" fill-opacity="0.5"/>
</svg>
