<svg width="23" height="21" viewBox="0 0 23 21" fill="none" xmlns="http://www.w3.org/2000/svg">
<path fill-rule="evenodd" clip-rule="evenodd" d="M6.84746 0.661123C7.99913 0.611193 8.36633 0.600098 11.3 0.600098C14.2337 0.600098 14.6009 0.612118 15.7516 0.661123C16.9023 0.710128 17.6877 0.883032 18.375 1.1336C19.0947 1.38972 19.7476 1.79009 20.2876 2.30787C20.8374 2.81549 21.2615 3.42944 21.5325 4.10811C21.7996 4.75535 21.9822 5.49505 22.0352 6.57685C22.0882 7.66328 22.1 8.00909 22.1 10.7709C22.1 13.5337 22.0872 13.8795 22.0352 14.9641C21.9832 16.0459 21.7996 16.7856 21.5325 17.4328C21.2615 18.1116 20.8367 18.7266 20.2876 19.2349C19.7476 19.7527 19.0947 20.1522 18.375 20.4073C17.6877 20.6588 16.9023 20.8308 15.7535 20.8808C14.6009 20.9307 14.2337 20.9418 11.3 20.9418C8.36633 20.9418 7.99913 20.9298 6.84746 20.8808C5.69873 20.8317 4.91327 20.6588 4.226 20.4073C3.50527 20.1521 2.85226 19.752 2.31244 19.2349C1.76299 18.727 1.3378 18.1123 1.06651 17.4338C0.800436 16.7865 0.617818 16.0468 0.5648 14.965C0.511782 13.8786 0.5 13.5328 0.5 10.7709C0.5 8.00817 0.512764 7.66236 0.5648 6.5787C0.616836 5.49505 0.800436 4.75535 1.06651 4.10811C1.3382 3.42952 1.76372 2.81486 2.31342 2.30695C2.85248 1.78962 3.50483 1.38921 4.22502 1.1336C4.91229 0.883032 5.69775 0.711052 6.84647 0.661123H6.84746ZM15.6642 2.49187C14.5253 2.44287 14.1836 2.4327 11.3 2.4327C8.4164 2.4327 8.07473 2.44287 6.93582 2.49187C5.88233 2.53718 5.31091 2.70269 4.92996 2.84231C4.42629 3.02723 4.06596 3.24637 3.68796 3.60234C3.32964 3.93063 3.05389 4.33028 2.88091 4.77199C2.73265 5.13074 2.55691 5.66887 2.5088 6.66099C2.45676 7.73355 2.44596 8.05532 2.44596 10.7709C2.44596 13.4866 2.45676 13.8083 2.5088 14.8809C2.55691 15.873 2.73265 16.4111 2.88091 16.7699C3.05371 17.2109 3.3296 17.6113 3.68796 17.9395C4.03651 18.277 4.46164 18.5368 4.92996 18.6996C5.31091 18.8392 5.88233 19.0047 6.93582 19.05C8.07473 19.099 8.41542 19.1092 11.3 19.1092C14.1846 19.1092 14.5253 19.099 15.6642 19.05C16.7177 19.0047 17.2891 18.8392 17.67 18.6996C18.1737 18.5146 18.534 18.2955 18.912 17.9395C19.2704 17.6113 19.5463 17.2109 19.7191 16.7699C19.8673 16.4111 20.0431 15.873 20.0912 14.8809C20.1432 13.8083 20.154 13.4866 20.154 10.7709C20.154 8.05532 20.1432 7.73355 20.0912 6.66099C20.0431 5.66887 19.8673 5.13074 19.7191 4.77199C19.5227 4.29766 19.29 3.95832 18.912 3.60234C18.5634 3.26492 18.1391 3.00523 17.67 2.84231C17.2891 2.70269 16.7177 2.53718 15.6642 2.49187ZM9.92055 13.9063C10.6909 14.2083 11.5488 14.2491 12.3475 14.0217C13.1463 13.7942 13.8364 13.3126 14.3001 12.6592C14.7637 12.0058 14.9721 11.2211 14.8896 10.4391C14.8071 9.65708 14.4389 8.92629 13.8478 8.37154C13.471 8.01693 13.0154 7.7454 12.5139 7.57651C12.0123 7.40761 11.4771 7.34555 10.947 7.39479C10.4169 7.44403 9.90499 7.60335 9.4481 7.86127C8.99121 8.1192 8.60073 8.46932 8.30477 8.88642C8.00881 9.30352 7.81473 9.77724 7.73651 10.2735C7.65828 10.7697 7.69786 11.2761 7.85238 11.7561C8.00691 12.2362 8.27255 12.6781 8.63016 13.0499C8.98778 13.4217 9.42848 13.7142 9.92055 13.9063ZM7.37469 7.0743C7.89017 6.58885 8.50213 6.20377 9.17564 5.94105C9.84914 5.67832 10.571 5.5431 11.3 5.5431C12.029 5.5431 12.7509 5.67832 13.4244 5.94105C14.0979 6.20377 14.7098 6.58885 15.2253 7.0743C15.7408 7.55975 16.1497 8.13606 16.4287 8.77033C16.7076 9.4046 16.8512 10.0844 16.8512 10.7709C16.8512 11.4575 16.7076 12.1373 16.4287 12.7715C16.1497 13.4058 15.7408 13.9821 15.2253 14.4676C14.1843 15.448 12.7723 15.9988 11.3 15.9988C9.82772 15.9988 8.41575 15.448 7.37469 14.4676C6.33363 13.4872 5.74878 12.1574 5.74878 10.7709C5.74878 9.38443 6.33363 8.05471 7.37469 7.0743ZM18.0824 6.32166C18.2101 6.20818 18.3124 6.07171 18.3831 5.92035C18.4539 5.76898 18.4916 5.60579 18.4942 5.44043C18.4968 5.27507 18.4641 5.11091 18.398 4.95766C18.332 4.80442 18.234 4.66521 18.1099 4.54827C17.9857 4.43133 17.8379 4.33904 17.6751 4.27687C17.5124 4.2147 17.3381 4.18391 17.1625 4.18632C16.9869 4.18873 16.8136 4.2243 16.6529 4.29091C16.4922 4.35752 16.3473 4.45382 16.2268 4.57412C15.9924 4.80808 15.8641 5.11884 15.8691 5.44043C15.8741 5.76202 16.0119 6.06912 16.2534 6.29655C16.4949 6.52397 16.821 6.65381 17.1625 6.6585C17.504 6.66318 17.834 6.54236 18.0824 6.32166Z" fill="#010851" fill-opacity="0.5"/>
</svg>
