<svg width="23" height="21" viewBox="0 0 23 21" fill="none" xmlns="http://www.w3.org/2000/svg">
<path d="M22.2 3.01299C21.4057 3.42074 20.5524 3.69625 19.6553 3.82077C20.5809 3.17917 21.2734 2.16936 21.6035 0.979764C20.7339 1.57815 19.7822 1.99935 18.7896 2.22505C18.1222 1.39949 17.2381 0.852289 16.2747 0.668415C15.3113 0.48454 14.3225 0.674275 13.4617 1.20816C12.6009 1.74205 11.9163 2.59022 11.5143 3.62098C11.1123 4.65175 11.0152 5.80744 11.2383 6.90864C9.4762 6.80614 7.7524 6.27558 6.17878 5.35138C4.60515 4.42717 3.21686 3.12998 2.104 1.544C1.72348 2.30439 1.50468 3.18601 1.50468 4.12493C1.50426 4.97018 1.68394 5.80247 2.02778 6.54798C2.37162 7.29349 2.86899 7.92915 3.47576 8.39857C2.77206 8.37263 2.0839 8.15236 1.46853 7.75609V7.82221C1.46846 9.0077 1.82245 10.1567 2.47042 11.0743C3.11839 11.9918 4.02044 12.6214 5.02351 12.8562C4.37072 13.0609 3.68631 13.0911 3.02199 12.9444C3.305 13.9644 3.85627 14.8564 4.59863 15.4955C5.34099 16.1346 6.23727 16.4887 7.16201 16.5083C5.59222 17.9359 3.65354 18.7103 1.65784 18.7069C1.30432 18.707 0.951105 18.6831 0.600006 18.6352C2.62576 20.1441 4.98388 20.9449 7.39222 20.9418C15.5448 20.9418 20.0016 13.1196 20.0016 6.33559C20.0016 6.11518 19.9968 5.89257 19.9883 5.67217C20.8552 4.94591 21.6035 4.04657 22.1981 3.0163L22.2 3.01299Z" fill="#010851" fill-opacity="0.5"/>
</svg>
